<svg width="23" height="20" viewBox="0 0 23 20" fill="none" xmlns="http://www.w3.org/2000/svg">
<path d="M5.82195 5.70534C8.31723 5.70534 9.5961 6.8542 10.7255 7.87011C11.7365 8.78138 12.6077 9.56457 14.398 9.56457C15.0962 9.56457 15.6545 9.4443 16.1375 9.2419V4.60423C16.1375 4.26368 15.9642 3.94654 15.6775 3.76262L10.3543 0.346575C10.0252 0.135396 9.60318 0.135396 9.2741 0.346576L3.9508 3.76262C3.66419 3.94654 3.49088 4.26368 3.49088 4.60423V6.11499C4.1362 5.86468 4.89496 5.70433 5.82383 5.70433L5.82195 5.70534Z" fill="black"/>
<path d="M14.2796 17.2972C11.7814 17.2972 10.5025 16.1484 9.37307 15.1325C8.36205 14.2212 7.49088 13.438 5.70355 13.438C4.76001 13.438 4.07361 13.656 3.48792 13.9934V18.7505C3.48792 19.3028 3.93563 19.7505 4.48792 19.7505H15.1363C15.6885 19.7505 16.1363 19.3028 16.1363 18.7505V17.0449C15.5985 17.2023 14.9903 17.2981 14.2785 17.2981L14.2796 17.2972Z" fill="black"/>
<path d="M14.397 11.4222C11.8988 11.4222 10.6198 10.2734 9.49045 9.25745C8.4765 8.34618 7.60826 7.56299 5.82093 7.56299C4.81481 7.56299 4.09908 7.81036 3.48798 8.18583V11.9482C4.10887 11.7233 4.82948 11.5806 5.70361 11.5806C8.19889 11.5806 9.47776 12.7294 10.6072 13.7453C11.6182 14.6566 12.4894 15.4398 14.2797 15.4398C15.0355 15.4398 15.629 15.297 16.1375 15.0673V11.205C15.629 11.3429 15.056 11.423 14.398 11.423L14.397 11.4222Z" fill="black"/>
<path d="M18.1116 6.43838L18.8547 7.34478C18.8977 7.39758 18.8919 7.47482 18.8371 7.5198C18.6191 7.69971 18.4167 7.88547 18.226 8.06051C17.1769 9.00405 16.2734 9.81756 14.3913 9.81756C12.5092 9.81756 11.6026 9.00405 10.5545 8.06247C9.45554 7.0759 8.21376 5.96027 5.81621 5.96027C3.41872 5.96027 2.17196 7.07688 1.07786 8.06051C0.835376 8.28051 0.607558 8.48584 0.369965 8.67848C0.222323 8.79874 0.132367 8.96888 0.114775 9.15366C0.097175 9.3365 0.154864 9.51153 0.272197 9.65135C0.514683 9.93392 0.933162 9.96912 1.22552 9.73153C1.49538 9.51153 1.75352 9.27882 1.98426 9.07349C3.02852 8.1319 3.92903 7.3184 5.81623 7.3184C7.70334 7.3184 8.59992 8.12898 9.64621 9.07056C10.7472 10.062 11.9889 11.1757 14.3923 11.1757C16.7957 11.1757 18.0346 10.0591 19.1287 9.07547L19.2088 9.00311C19.3711 8.85547 19.5315 8.70978 19.6997 8.57486C19.7251 8.55531 19.7573 8.54259 19.7925 8.54748C19.8248 8.55041 19.8551 8.56704 19.8776 8.59246L20.694 9.58391L21.9628 6.48103C22.1133 6.11296 21.7947 5.725 21.4044 5.80101L18.1108 6.44241L18.1116 6.43838Z" fill="#2B2A2A"/>
<path d="M14.2796 15.6901C12.3945 15.6901 11.4909 14.8766 10.4429 13.935C9.34388 12.9485 8.1021 11.8328 5.70454 11.8328C3.30699 11.8328 2.0603 12.9494 0.966199 13.9331C0.718824 14.156 0.492965 14.3584 0.258301 14.551C0.110659 14.6713 0.0207028 14.8415 0.00311106 15.0262C-0.0144886 15.2091 0.0432005 15.3841 0.160533 15.5239C0.403019 15.8065 0.821498 15.8417 1.11386 15.6041C1.38372 15.3841 1.64186 15.1514 1.87259 14.9461C2.91686 14.0045 3.81737 13.191 5.70457 13.191C7.59177 13.191 8.49026 14.0045 9.53454 14.9431C10.6355 15.9317 11.8773 17.0483 14.2806 17.0483C16.684 17.0483 17.9229 15.9317 19.017 14.948L19.105 14.8679C19.2653 14.7232 19.4257 14.5804 19.588 14.4445C19.6134 14.4249 19.6457 14.4142 19.6809 14.4171C19.7132 14.42 19.7435 14.4367 19.766 14.4621L20.5824 15.4535L21.8512 12.3507C22.0017 11.9826 21.6831 11.5946 21.2928 11.6706L17.9992 12.312L18.7423 13.2184C18.7853 13.2712 18.7794 13.3485 18.7247 13.3934C18.5066 13.5734 18.3042 13.7591 18.1136 13.9342C17.0674 14.8777 16.161 15.6912 14.2788 15.6912L14.2796 15.6901Z" fill="#2B2A2A"/>
</svg>
